<svg version="1.1" viewBox="0.0 0.0 100.0 100.0" fill="none" stroke="none" stroke-linecap="square" stroke-miterlimit="10" xmlns:xlink="http://www.w3.org/1999/xlink" xmlns="http://www.w3.org/2000/svg"><clipPath id="p.0"><path d="m0 0l100.0 0l0 100.0l-100.0 0l0 -100.0z" clip-rule="nonzero"/></clipPath><g clip-path="url(#p.0)"><path fill="#000000" fill-opacity="0.0" d="m0 0l100.0 0l0 100.0l-100.0 0z" fill-rule="evenodd"/><path fill="#e9f4cc" d="m11.199233 79.60905l-10.448041 -38.945637l28.486656 -28.502401l38.937767 10.440166l10.448036 38.94564l-28.486652 28.502403z" fill-rule="evenodd"/><path stroke="#000000" stroke-width="1.0" stroke-linejoin="round" stroke-linecap="butt" d="m11.199233 79.60905l-10.448041 -38.945637l28.486656 -28.502401l38.937767 10.440166l10.448036 38.94564l-28.486652 28.502403z" fill-rule="evenodd"/><path fill="#f4eecc" d="m11.228761 69.703674l-0.0087451935 -40.317757l34.915146 -20.18335l34.888878 20.154652l0.008743286 40.317757l-34.915146 20.18335z" fill-rule="evenodd"/><path stroke="#000000" stroke-width="1.0" stroke-linejoin="round" stroke-linecap="butt" d="m11.228761 69.703674l-0.0087451935 -40.317757l34.915146 -20.18335l34.888878 20.154652l0.008743286 40.317757l-34.915146 20.18335z" fill-rule="evenodd"/><path fill="#f4dfcc" d="m13.60517 66.21852l10.64264 -38.88314l38.966698 -10.20219l28.343422 28.67588l-10.642647 38.883144l-38.966694 10.202187z" fill-rule="evenodd"/><path stroke="#000000" stroke-width="1.0" stroke-linejoin="round" stroke-linecap="butt" d="m13.60517 66.21852l10.64264 -38.88314l38.966698 -10.20219l28.343422 28.67588l-10.642647 38.883144l-38.966694 10.202187z" fill-rule="evenodd"/><path fill="#f4cccc" d="m18.738947 62.445835l20.146421 -34.91337l40.30558 0l20.146423 34.91337l-20.146423 34.913372l-40.30558 0z" fill-rule="evenodd"/><path stroke="#000000" stroke-width="1.0" stroke-linejoin="round" stroke-linecap="butt" d="m18.738947 62.445835l20.146421 -34.91337l40.30558 0l20.146423 34.91337l-20.146423 34.913372l-40.30558 0z" fill-rule="evenodd"/></g></svg>